<svg xmlns="http://www.w3.org/2000/svg" width="1200" height="552" viewBox="0 0 1200 552" role="img" aria-labelledby="eco-title eco-desc">
<title id="eco-title">Ali Alavi's product ecosystem across three scales</title>
<desc id="eco-desc">One product architecture practice across independent systems: Korven for organizational operations, Orylo for governed project delivery, Nustro for human insight, plus iGold for market intelligence and ORBIS for knowledge systems.</desc>
<defs>
<linearGradient id="eco-bg" x1="0" y1="0" x2="1" y2="1"><stop offset="0%" stop-color="#0c111c"/><stop offset="100%" stop-color="#14251f"/></linearGradient>
</defs>
<rect width="1200" height="552" rx="22" fill="url(#eco-bg)"/>
<rect x="1" y="1" width="1198" height="550" rx="21" fill="none" stroke="#34544b" stroke-width="1.5"/>
<g font-family="Inter, Segoe UI, Arial, sans-serif">
<text x="600" y="53" text-anchor="middle" fill="#f2f8f5" font-size="32" font-weight="750" letter-spacing=".2">A PORTFOLIO ACROSS THREE SCALES</text>
<text x="600" y="83" text-anchor="middle" fill="#aac3b9" font-size="17">Independent products, connected by one systems-design practice</text>
<rect x="428" y="102" width="344" height="44" rx="22" fill="#1b3c32" stroke="#6ca994"/>
<text x="600" y="130" text-anchor="middle" fill="#e7f7ef" font-size="17" font-weight="700" letter-spacing="1">PRODUCT &amp; SYSTEMS ARCHITECTURE</text>
<g fill="none" stroke="#587f70" stroke-width="2" stroke-linecap="round" stroke-linejoin="round">
<path d="M600 146V165H202V183"/>
<path d="M600 165V183"/>
<path d="M600 165H998V183"/>
</g>

<rect x="40" y="185" width="324" height="216" rx="17" fill="#19242b" stroke="#455b58"/>
<rect x="40" y="185" width="324" height="5" rx="2.5" fill="#69d5b7"/>
<text x="65" y="226" fill="#69d5b7" font-size="15" font-weight="750" letter-spacing="1.3">01  /  ORGANIZATIONS</text>
<text x="65" y="276" fill="#f3f8f5" font-size="39" font-weight="750" letter-spacing="2">KORVEN<tspan dx="3" dy="-15" font-size="17" letter-spacing="0">™</tspan></text>
<text x="65" y="311" fill="#69d5b7" font-size="21" font-weight="650">Organization in Flow</text>
<text x="65" y="346" fill="#e0e9e5" font-size="17">One connected operational system</text>
<text x="65" y="375" fill="#a3b5b0" font-size="15.5">Structure · Work · Data · Information</text>
<rect x="438" y="185" width="324" height="216" rx="17" fill="#19242b" stroke="#455b58"/>
<rect x="438" y="185" width="324" height="5" rx="2.5" fill="#b3a5ff"/>
<text x="463" y="226" fill="#b3a5ff" font-size="15" font-weight="750" letter-spacing="1.3">02  /  PROJECTS</text>
<text x="463" y="276" fill="#f3f8f5" font-size="39" font-weight="750" letter-spacing="2">ORYLO<tspan dx="3" dy="-15" font-size="17" letter-spacing="0">™</tspan></text>
<text x="463" y="311" fill="#b3a5ff" font-size="21" font-weight="650">Shared Project Reality</text>
<text x="463" y="346" fill="#e0e9e5" font-size="17">Governed human–AI project delivery</text>
<text x="463" y="375" fill="#a3b5b0" font-size="15.5">Knowledge · Decisions · Execution</text>
<rect x="836" y="185" width="324" height="216" rx="17" fill="#19242b" stroke="#455b58"/>
<rect x="836" y="185" width="324" height="5" rx="2.5" fill="#f0c584"/>
<text x="861" y="226" fill="#f0c584" font-size="15" font-weight="750" letter-spacing="1.3">03  /  PEOPLE</text>
<text x="861" y="276" fill="#f3f8f5" font-size="39" font-weight="750" letter-spacing="2">NUSTRO<tspan dx="3" dy="-15" font-size="17" letter-spacing="0">™</tspan></text>
<text x="861" y="311" fill="#f0c584" font-size="21" font-weight="650">Identity &amp; Guidance</text>
<text x="861" y="346" fill="#e0e9e5" font-size="17">Multidimensional personal insight</text>
<text x="861" y="375" fill="#a3b5b0" font-size="15.5">Understanding · Continuity · Growth</text>
<rect x="40" y="426" width="1120" height="105" rx="15" fill="#152621" stroke="#38594d" stroke-dasharray="5 4"/>
<text x="67" y="453" fill="#88b39f" font-size="14.5" font-weight="750" letter-spacing="1.7">OTHER EXPLORATIONS</text>
<g>
<rect x="67" y="468" width="500" height="46" rx="11" fill="#1b3029" stroke="#456657"/>
<text x="87" y="497" fill="#f1f8f3" font-size="22" font-weight="700">iGold</text>
<text x="181" y="496" fill="#bacfc3" font-size="17">Market Intelligence</text>
<rect x="591" y="468" width="542" height="46" rx="11" fill="#1b3029" stroke="#456657"/>
<text x="611" y="497" fill="#f1f8f3" font-size="22" font-weight="700">ORBIS</text>
<text x="711" y="496" fill="#bacfc3" font-size="17">Connected Knowledge Systems</text>
</g></g>
</svg>